<svg width="24" height="24" viewBox="0 0 24 24" fill="none" xmlns="http://www.w3.org/2000/svg">
<path d="M16 17.5V24H1.5C1.08333 24 0.729167 23.8542 0.4375 23.5625C0.145833 23.2708 0 22.9167 0 22.5V1.5C0 1.08333 0.145833 0.729167 0.4375 0.4375C0.729167 0.145833 1.08333 0 1.5 0H22.5C22.9167 0 23.2708 0.145833 23.5625 0.4375C23.8542 0.729167 24 1.08333 24 1.5V16H17.5C17.0833 16 16.7292 16.1458 16.4375 16.4375C16.1458 16.7292 16 17.0833 16 17.5ZM18 18H23.9531C23.7969 18.8542 23.4583 19.5417 22.9375 20.0625L20.0625 22.9375C19.5417 23.4583 18.8542 23.7969 18 23.9531V18Z" fill="#4D5256"/>
</svg>
