<svg width="137" height="139" viewBox="0 0 137 139" fill="none" xmlns="http://www.w3.org/2000/svg">
<path d="M134.528 19.3552L117.364 2.19132C115.889 0.784704 113.928 0 111.89 0C109.852 0 107.891 0.784704 106.416 2.19132L91.1542 17.4997H9.27778C6.81716 17.4997 4.45732 18.4771 2.7174 20.2171C0.977477 21.957 0 24.3168 0 26.7774V128.833C0 131.294 0.977477 133.653 2.7174 135.393C4.45732 137.133 6.81716 138.111 9.27778 138.111H111.333C113.794 138.111 116.154 137.133 117.894 135.393C119.634 133.653 120.611 131.294 120.611 128.833V44.2197L134.528 30.303C135.978 28.8505 136.793 26.8817 136.793 24.8291C136.793 22.7765 135.978 20.8077 134.528 19.3552ZM68.7947 83.0471L49.3578 87.3613L53.9967 68.1099L98.2981 23.7158L113.282 38.6994L68.7947 83.0471ZM118.292 33.411L103.308 18.4274L111.89 9.84549L126.874 24.8291L118.292 33.411Z" fill="#F6C90E"/>
</svg>
