<svg width="18" height="18" viewBox="0 0 18 18" fill="none" xmlns="http://www.w3.org/2000/svg">
<circle cx="9" cy="9" r="9" fill="#F6C90E"/>
<path d="M11.8847 6.2068C12.0256 6.07269 12.213 5.99855 12.4075 6.00002C12.602 6.00149 12.7883 6.07846 12.9272 6.21469C13.066 6.35092 13.1464 6.53575 13.1516 6.73018C13.1567 6.92461 13.0861 7.11343 12.9547 7.2568L8.96471 12.2468C8.8961 12.3207 8.81329 12.38 8.72124 12.4212C8.62919 12.4623 8.52978 12.4845 8.42896 12.4864C8.32814 12.4882 8.22798 12.4698 8.13447 12.432C8.04095 12.3943 7.95601 12.3381 7.88471 12.2668L5.23871 9.6208C5.16502 9.55214 5.10592 9.46934 5.06493 9.37734C5.02394 9.28534 5.00189 9.18603 5.00012 9.08533C4.99834 8.98462 5.01686 8.88459 5.05459 8.79121C5.09231 8.69782 5.14845 8.61298 5.21967 8.54176C5.29089 8.47055 5.37572 8.4144 5.46911 8.37668C5.5625 8.33896 5.66253 8.32043 5.76323 8.32221C5.86393 8.32399 5.96325 8.34603 6.05525 8.38702C6.14725 8.42801 6.23005 8.48712 6.29871 8.5608L8.39271 10.6538L11.8657 6.2288C11.872 6.2211 11.8786 6.21376 11.8857 6.2068H11.8847Z" fill="white"/>
</svg>
