<svg width="20" height="22" viewBox="0 0 20 22" fill="none" xmlns="http://www.w3.org/2000/svg">
<path d="M2.2 19.8C2.2 20.3835 2.43179 20.9431 2.84437 21.3556C3.25695 21.7682 3.81652 22 4.4 22H15.4C15.9835 22 16.5431 21.7682 16.9556 21.3556C17.3682 20.9431 17.6 20.3835 17.6 19.8V6.6H19.8V4.4H15.4V2.2C15.4 1.61652 15.1682 1.05694 14.7556 0.644365C14.3431 0.231785 13.7835 0 13.2 0H6.6C6.01652 0 5.45694 0.231785 5.04436 0.644365C4.63178 1.05694 4.4 1.61652 4.4 2.2V4.4H0V6.6H2.2V19.8ZM6.6 2.2H13.2V4.4H6.6V2.2ZM5.5 6.6H15.4V19.8H4.4V6.6H5.5Z" fill="white"/>
<path d="M6.60001 8.80005H8.80001V17.6H6.60001V8.80005ZM11 8.80005H13.2V17.6H11V8.80005Z" fill="white"/>
</svg>
